<svg xmlns="http://www.w3.org/2000/svg" viewBox="0 0 256 256" width="256" height="256">
  <defs>
    <radialGradient id="portalCore" cx="0.5" cy="0.5" r="0.5">
      <stop offset="0%" stop-color="#CDD6F4"/>
      <stop offset="25%" stop-color="#89B4FA"/>
      <stop offset="60%" stop-color="#6272B0"/>
      <stop offset="100%" stop-color="#313244"/>
    </radialGradient>
  </defs>

  <!-- Outer ring glow -->
  <circle cx="128" cy="128" r="122" fill="none" stroke="#45475A" stroke-width="8" opacity="0.15"/>
  <circle cx="128" cy="128" r="116" fill="none" stroke="#89B4FA" stroke-width="5" opacity="0.2"/>
  <circle cx="128" cy="128" r="110" fill="none" stroke="#89B4FA" stroke-width="3" opacity="0.35"/>
  <circle cx="128" cy="128" r="104" fill="none" stroke="#B4BEFE" stroke-width="2" opacity="0.5"/>

  <!-- Portal surface -->
  <circle cx="128" cy="128" r="98" fill="url(#portalCore)"/>

  <!-- Swirl lines -->
  <path d="M 128,32 Q 180,70 165,128 Q 150,186 128,224" fill="none" stroke="#B4BEFE" stroke-width="2.5" opacity="0.3"/>
  <path d="M 88,42 Q 130,80 122,128 Q 114,176 78,218" fill="none" stroke="#89B4FA" stroke-width="2" opacity="0.25"/>
  <path d="M 172,48 Q 148,90 145,128 Q 142,166 180,212" fill="none" stroke="#B4BEFE" stroke-width="2" opacity="0.25"/>
  <path d="M 56,78 Q 100,105 110,128 Q 120,151 60,182" fill="none" stroke="#89B4FA" stroke-width="1.5" opacity="0.2"/>
  <path d="M 200,78 Q 156,105 146,128 Q 136,151 196,182" fill="none" stroke="#B4BEFE" stroke-width="1.5" opacity="0.2"/>

  <!-- Inner rings -->
  <circle cx="128" cy="128" r="42" fill="none" stroke="#89B4FA" stroke-width="1.5" opacity="0.3"/>
  <circle cx="128" cy="128" r="24" fill="#89B4FA" opacity="0.25"/>
  <circle cx="128" cy="128" r="14" fill="#B4BEFE" opacity="0.5"/>
  <circle cx="128" cy="128" r="6" fill="#CDD6F4"/>

  <!-- Particles -->
  <circle cx="48" cy="100" r="4" fill="#89B4FA" opacity="0.6"/>
  <circle cx="62" cy="178" r="3.5" fill="#B4BEFE" opacity="0.5"/>
  <circle cx="208" cy="92" r="4.5" fill="#89B4FA" opacity="0.5"/>
  <circle cx="196" cy="172" r="3" fill="#B4BEFE" opacity="0.45"/>
  <circle cx="128" cy="36" r="3" fill="#CDD6F4" opacity="0.5"/>
  <circle cx="110" cy="218" r="2.5" fill="#89B4FA" opacity="0.4"/>
  <circle cx="42" cy="138" r="2" fill="#B4BEFE" opacity="0.35"/>
  <circle cx="216" cy="134" r="2.5" fill="#89B4FA" opacity="0.35"/>

  <!-- Decorative arc segments -->
  <path d="M 128,18 A 110,110 0 0,1 228,88" fill="none" stroke="#89B4FA" stroke-width="3" opacity="0.3" stroke-linecap="round"/>
  <path d="M 28,168 A 110,110 0 0,1 52,68" fill="none" stroke="#B4BEFE" stroke-width="2.5" opacity="0.25" stroke-linecap="round"/>
  <path d="M 178,224 A 110,110 0 0,1 236,158" fill="none" stroke="#89B4FA" stroke-width="2.5" opacity="0.2" stroke-linecap="round"/>
</svg>
