<svg xmlns="http://www.w3.org/2000/svg" width="520" height="480" viewBox="0 0 520 480">
  <!-- Window background -->
  <rect x="0" y="0" width="520" height="480" rx="12" ry="12" fill="#1E1E2E" stroke="#313244" stroke-width="1"/>

  <!-- Title bar -->
  <rect x="0" y="0" width="520" height="44" rx="12" ry="12" fill="#181825"/>
  <rect x="0" y="32" width="520" height="12" fill="#181825"/>
  <circle cx="16" cy="22" r="4" fill="#89B4FA"/>
  <text x="28" y="27" fill="#CDD6F4" font-family="Segoe UI" font-size="14" font-weight="600">BatLauncher</text>

  <!-- Window controls -->
  <rect x="430" y="10" width="24" height="24" rx="4" fill="transparent"/>
  <text x="442" y="27" text-anchor="middle" fill="#A6ADC8" font-family="Segoe UI" font-size="10">&#x2014;</text>
  <rect x="458" y="10" width="24" height="24" rx="4" fill="transparent"/>
  <text x="470" y="26" text-anchor="middle" fill="#A6ADC8" font-family="Segoe UI" font-size="10">&#x25A1;</text>
  <rect x="486" y="10" width="24" height="24" rx="4" fill="transparent"/>
  <text x="498" y="27" text-anchor="middle" fill="#A6ADC8" font-family="Segoe UI" font-size="10">&#x2715;</text>

  <!-- Search bar -->
  <rect x="16" y="56" width="380" height="36" rx="8" ry="8" fill="#313244"/>
  <text x="38" y="79" fill="#6C7086" font-family="Segoe UI" font-size="14">&#x1F50D;</text>
  <text x="58" y="79" fill="#585B70" font-family="Segoe UI" font-size="13">Search scripts...</text>

  <!-- Action buttons -->
  <rect x="404" y="56" width="34" height="36" rx="8" ry="8" fill="#313244"/>
  <text x="421" y="79" text-anchor="middle" fill="#A6ADC8" font-family="Segoe UI" font-size="16">+</text>
  <rect x="442" y="56" width="34" height="36" rx="8" ry="8" fill="#313244"/>
  <text x="459" y="79" text-anchor="middle" fill="#A6ADC8" font-family="Segoe UI" font-size="13">&#x270E;</text>
  <rect x="480" y="56" width="34" height="36" rx="8" ry="8" fill="#313244"/>
  <text x="497" y="79" text-anchor="middle" fill="#F38BA8" font-family="Segoe UI" font-size="13">&#x1F5D1;</text>

  <!-- List item 1 (selected) -->
  <rect x="16" y="104" width="488" height="60" rx="8" ry="8" fill="#313244" stroke="#45475A" stroke-width="1"/>
  <rect x="28" y="113" width="42" height="42" rx="8" ry="8" fill="#45475A"/>
  <text x="49" y="140" text-anchor="middle" fill="#89B4FA" font-family="Segoe UI" font-size="18" font-weight="bold">E</text>
  <text x="84" y="133" fill="#CDD6F4" font-family="Segoe UI" font-size="14" font-weight="500">Launch Elden Ring Mods</text>
  <text x="84" y="150" fill="#6C7086" font-family="Segoe UI" font-size="11">C:\Games\EldenRing\launchmod.bat</text>
  <text x="480" y="140" text-anchor="middle" fill="#A6E3A1" font-family="Segoe UI" font-size="16" opacity="0.6">&#x25B6;</text>

  <!-- List item 2 -->
  <rect x="16" y="170" width="488" height="60" rx="8" ry="8" fill="transparent"/>
  <rect x="28" y="179" width="42" height="42" rx="8" ry="8" fill="#45475A"/>
  <text x="49" y="206" text-anchor="middle" fill="#F38BA8" font-family="Segoe UI" font-size="18" font-weight="bold">S</text>
  <text x="84" y="199" fill="#CDD6F4" font-family="Segoe UI" font-size="14" font-weight="500">Start Dev Server</text>
  <text x="84" y="216" fill="#6C7086" font-family="Segoe UI" font-size="11">D:\Projects\myapp\start-server.cmd</text>
  <text x="480" y="206" text-anchor="middle" fill="#A6E3A1" font-family="Segoe UI" font-size="16" opacity="0.6">&#x25B6;</text>

  <!-- List item 3 -->
  <rect x="16" y="236" width="488" height="60" rx="8" ry="8" fill="transparent"/>
  <rect x="28" y="245" width="42" height="42" rx="8" ry="8" fill="#45475A"/>
  <text x="49" y="272" text-anchor="middle" fill="#A6E3A1" font-family="Segoe UI" font-size="18" font-weight="bold">D</text>
  <text x="84" y="265" fill="#CDD6F4" font-family="Segoe UI" font-size="14" font-weight="500">Deploy to Production</text>
  <text x="84" y="282" fill="#6C7086" font-family="Segoe UI" font-size="11">C:\Deploy\prod-deploy.bat</text>
  <text x="480" y="272" text-anchor="middle" fill="#A6E3A1" font-family="Segoe UI" font-size="16" opacity="0.6">&#x25B6;</text>

  <!-- List item 4 -->
  <rect x="16" y="302" width="488" height="60" rx="8" ry="8" fill="transparent"/>
  <rect x="28" y="311" width="42" height="42" rx="8" ry="8" fill="#45475A"/>
  <text x="49" y="338" text-anchor="middle" fill="#FAB387" font-family="Segoe UI" font-size="18" font-weight="bold">B</text>
  <text x="84" y="331" fill="#CDD6F4" font-family="Segoe UI" font-size="14" font-weight="500">Backup Database</text>
  <text x="84" y="348" fill="#6C7086" font-family="Segoe UI" font-size="11">E:\Scripts\backup-db.bat</text>
  <text x="480" y="338" text-anchor="middle" fill="#A6E3A1" font-family="Segoe UI" font-size="16" opacity="0.6">&#x25B6;</text>

  <!-- List item 5 -->
  <rect x="16" y="368" width="488" height="60" rx="8" ry="8" fill="transparent"/>
  <rect x="28" y="377" width="42" height="42" rx="8" ry="8" fill="#45475A"/>
  <text x="49" y="404" text-anchor="middle" fill="#B4BEFE" font-family="Segoe UI" font-size="18" font-weight="bold">M</text>
  <text x="84" y="397" fill="#CDD6F4" font-family="Segoe UI" font-size="14" font-weight="500">Install Mod Manager</text>
  <text x="84" y="414" fill="#6C7086" font-family="Segoe UI" font-size="11">C:\Games\Mods\install-manager.cmd</text>
  <text x="480" y="404" text-anchor="middle" fill="#A6E3A1" font-family="Segoe UI" font-size="16" opacity="0.6">&#x25B6;</text>

  <!-- Status bar -->
  <rect x="0" y="440" width="520" height="40" rx="0" ry="0" fill="#181825"/>
  <rect x="0" y="468" width="520" height="12" rx="12" ry="12" fill="#181825"/>
  <text x="16" y="464" fill="#585B70" font-family="Segoe UI" font-size="11">5 scripts</text>
</svg>
